<svg xmlns="http://www.w3.org/2000/svg" width="1536" height="1024" viewBox="0 0 1536 1024">
<defs>
 <filter id="soft" x="-20%" y="-20%" width="140%" height="140%"><feTurbulence type="fractalNoise" baseFrequency=".018" numOctaves="2" seed="8" result="n"/><feDisplacementMap in="SourceGraphic" in2="n" scale="1.7"/><feGaussianBlur stdDeviation=".08"/></filter>
 <style>.o{stroke:#2f352f;stroke-width:5;stroke-linejoin:round;stroke-linecap:round}.s{stroke:#2f352f;stroke-width:4;stroke-linecap:round;fill:none}.eye{fill:#1f2724}.shine{fill:#fff;opacity:.82}</style>
 <symbol id="hedge" viewBox="0 0 220 190"><ellipse cx="108" cy="158" rx="78" ry="11" fill="#5d55482a"/><g filter="url(#soft)"><path class="o" fill="#5a493d" d="M38 121 18 91l30 5-13-32 33 17-3-38 30 25 9-39 23 35 22-34 11 40 31-24-5 39 34-12-18 34 29-1-23 29-42 27-95-3z"/><ellipse class="o" cx="106" cy="121" rx="66" ry="50" fill="#e9bd78"/><ellipse cx="132" cy="126" rx="47" ry="37" fill="#f5dba9"/><circle class="o" cx="148" cy="104" r="9" fill="#262c29"/><circle class="shine" cx="151" cy="101" r="3"/><path class="s" d="M169 122q13 7 21 0"/><ellipse class="o" cx="76" cy="154" rx="18" ry="10" fill="#8a654b"/><ellipse class="o" cx="145" cy="157" rx="18" ry="10" fill="#8a654b"/><path fill="#f8d94b" class="o" d="m56 68 12-24 6 17 13-19 2 27zm50-7 13-26 6 18 14-17-1 27zm48 13 16-23 3 19 17-13-7 27z"/></g></symbol>
 <symbol id="turtle" viewBox="0 0 220 190"><ellipse cx="108" cy="160" rx="82" ry="11" fill="#5d55482a"/><g filter="url(#soft)"><ellipse class="o" cx="104" cy="116" rx="70" ry="48" fill="#6f934e"/><path class="o" fill="#8dad5f" d="M48 116q15-45 56-47 43 2 62 47-19 27-60 32-39-2-58-32z"/><path class="s" stroke="#4d6940" d="M64 101q40 26 81 1M82 78q7 56 3 65m40-65q-4 53 2 64"/><ellipse class="o" cx="169" cy="127" rx="28" ry="23" fill="#dfe3a9"/><circle class="eye" cx="178" cy="120" r="7"/><circle class="shine" cx="180" cy="117" r="2.5"/><ellipse class="o" cx="61" cy="151" rx="22" ry="12" fill="#b5c77e"/><ellipse class="o" cx="136" cy="154" rx="22" ry="12" fill="#b5c77e"/><path fill="#6f9b51" class="o" d="M89 69q8-22 21-29 11 10 9 28-13 8-30 1z"/><path fill="#f1e3ae" class="o" d="M105 52q8-11 15 0-7 9-15 0z"/></g></symbol>
 <symbol id="elephant" viewBox="0 0 220 190"><ellipse cx="108" cy="160" rx="79" ry="11" fill="#5d55482a"/><g filter="url(#soft)"><ellipse class="o" cx="106" cy="116" rx="63" ry="50" fill="#8ca7ac"/><ellipse class="o" cx="154" cy="110" rx="38" ry="39" fill="#9db7ba"/><ellipse class="o" cx="132" cy="101" rx="26" ry="31" fill="#78979c"/><ellipse class="o" cx="174" cy="99" rx="22" ry="30" fill="#78979c"/><path class="o" fill="#9db7ba" d="M181 116q22 16 9 47-7 14-17 5 11-8 6-21-8-17-14-25z"/><circle class="eye" cx="163" cy="104" r="7"/><circle class="shine" cx="165" cy="101" r="2.5"/><path class="s" d="M192 116q8-4 14 1"/><rect class="o" x="66" y="145" width="25" height="25" rx="10" fill="#7c989d"/><rect class="o" x="123" y="145" width="25" height="25" rx="10" fill="#7c989d"/><path fill="#70894d" class="o" d="M90 66q10-16 25-19 7 11 0 22-13 4-25-3z"/></g></symbol>
 <symbol id="panda" viewBox="0 0 220 190"><ellipse cx="108" cy="160" rx="81" ry="11" fill="#5d55482a"/><g filter="url(#soft)"><circle class="o" cx="83" cy="73" r="19" fill="#363c39"/><circle class="o" cx="151" cy="74" r="19" fill="#363c39"/><ellipse class="o" cx="112" cy="111" rx="64" ry="55" fill="#eee1bd"/><ellipse class="o" cx="89" cy="108" rx="22" ry="26" fill="#434744" transform="rotate(-16 89 108)"/><ellipse class="o" cx="143" cy="108" rx="22" ry="26" fill="#434744" transform="rotate(16 143 108)"/><circle class="eye" cx="94" cy="108" r="7"/><circle class="eye" cx="138" cy="108" r="7"/><circle class="shine" cx="96" cy="105" r="2.4"/><circle class="shine" cx="140" cy="105" r="2.4"/><ellipse class="o" cx="116" cy="128" rx="12" ry="9" fill="#302f2c"/><path class="s" d="M116 137q-7 8-14 2m14-2q7 8 14 2"/><ellipse class="o" cx="67" cy="153" rx="26" ry="15" fill="#414541"/><ellipse class="o" cx="156" cy="153" rx="26" ry="15" fill="#414541"/><path fill="#6f914f" class="o" d="M117 61q11-19 27-22 7 12-1 23-14 5-26-1z"/></g></symbol>
 <symbol id="bolt" viewBox="0 0 50 80"><path class="o" fill="#ffd942" d="M29 2 7 40h18l-5 36 24-46H27z"/></symbol>
 <symbol id="drop" viewBox="0 0 60 80"><path class="o" fill="#55bff1" d="M30 3S7 34 7 50a23 23 0 0 0 46 0C53 34 30 3 30 3z"/><path class="shine" d="M18 49q4-13 14-23-4 18 5 28-12 6-19-5z"/></symbol>
</defs>
<g transform="translate(18 30)"><use href="#hedge" width="220" height="190"/></g><g transform="translate(274 25) rotate(3 110 95)"><use href="#hedge" width="220" height="190"/></g><g transform="translate(530 52) scale(1 .78)"><use href="#hedge" width="220" height="190"/></g><g transform="translate(786 26)"><use href="#hedge" width="220" height="190"/><use href="#bolt" x="78" y="4" width="42" height="68"/></g><g transform="translate(1042 24)"><use href="#hedge" width="220" height="190"/><path d="M34 59 8 38m167 18 32-25m-82 6 5-31" stroke="#ffe25c" stroke-width="8" fill="none" stroke-linecap="round"/></g><g transform="translate(1300 54) rotate(78 110 95) scale(.9)"><use href="#hedge" width="220" height="190"/></g>
<g transform="translate(18 286)"><use href="#turtle" width="220" height="190"/></g><g transform="translate(274 282) rotate(-2 110 95)"><use href="#turtle" width="220" height="190"/></g><g transform="translate(530 326) scale(1 .72)"><use href="#turtle" width="220" height="190"/></g><g transform="translate(786 303)"><use href="#turtle" width="220" height="190"/><ellipse cx="108" cy="116" rx="83" ry="62" fill="none" stroke="#8dc77a" stroke-width="9" opacity=".55"/></g><g transform="translate(1042 299)"><use href="#turtle" width="220" height="190"/><ellipse cx="108" cy="116" rx="91" ry="68" fill="none" stroke="#d9f1a7" stroke-width="11" opacity=".72"/><ellipse cx="108" cy="116" rx="76" ry="55" fill="none" stroke="#6f9b51" stroke-width="5" opacity=".8"/></g><g transform="translate(1300 334) rotate(12 110 95) scale(.96 .78)"><use href="#turtle" width="220" height="190"/></g>
<g transform="translate(18 542)"><use href="#elephant" width="220" height="190"/></g><g transform="translate(274 538) rotate(2 110 95)"><use href="#elephant" width="220" height="190"/></g><g transform="translate(530 566) scale(1 .84)"><use href="#elephant" width="220" height="190"/></g><g transform="translate(786 540)"><use href="#elephant" width="220" height="190"/><use href="#drop" x="183" y="80" width="26" height="36"/></g><g transform="translate(1042 540)"><use href="#elephant" width="220" height="190"/><path d="M194 124q37-21 70-4" fill="none" stroke="#55bff1" stroke-width="14" stroke-linecap="round"/><circle cx="246" cy="108" r="8" fill="#9fe0ff"/></g><g transform="translate(1300 584) rotate(18 110 95) scale(.94 .80)"><use href="#elephant" width="220" height="190"/></g>
<g transform="translate(18 798)"><use href="#panda" width="220" height="190"/></g><g transform="translate(274 794) rotate(-3 110 95)"><use href="#panda" width="220" height="190"/></g><g transform="translate(530 826) scale(1 .82)"><use href="#panda" width="220" height="190"/></g><g transform="translate(786 815) rotate(-14 110 95) scale(.92)"><use href="#panda" width="220" height="190"/><path d="M30 145q-30 5-42 23" class="s" stroke="#9a8f72"/></g><g transform="translate(1042 816)"><circle class="o" cx="110" cy="105" r="68" fill="#eee1bd"/><circle cx="72" cy="67" r="22" fill="#363c39"/><circle cx="148" cy="67" r="22" fill="#363c39"/><path d="M43 129q-29 8-45 24M178 129q28 8 43 23" class="s" stroke="#9a8f72"/></g><g transform="translate(1300 837) rotate(24 110 95) scale(.92 .78)"><use href="#panda" width="220" height="190"/></g>
</svg>
